<?xml version="1.0" encoding="utf-8"?>
<!-- Generator: Adobe Illustrator 21.0.0, SVG Export Plug-In . SVG Version: 6.00 Build 0)  -->
<svg version="1.1" id="Layer_1" xmlns="http://www.w3.org/2000/svg" xmlns:xlink="http://www.w3.org/1999/xlink" x="0px" y="0px"
	 viewBox="0 0 243.1 274" style="enable-background:new 0 0 243.1 274;" xml:space="preserve">
<style type="text/css">
	.st0{fill:#C10F19;}
</style>
<g>
	<g>
		<path class="st0" d="M125,123h53.7v77.5c0,39.1-19.5,61.4-57.2,61.4c-37.7,0-57.2-22.3-57.2-61.4v-127c0-39.1,19.5-61.4,57.2-61.4
			c37.7,0,57.2,22.3,57.2,61.4v23.7h-36.3V71.1c0-17.4-7.7-24.1-19.9-24.1c-12.2,0-19.9,6.6-19.9,24.1v131.9
			c0,17.5,7.7,23.7,19.9,23.7c12.2,0,19.9-6.3,19.9-23.7v-45H125V123z"/>
	</g>
</g>
</svg>
